<?xml version="1.0" encoding="UTF-8"?>
<svg width="199px" height="94px" viewBox="0 0 199 94" version="1.1" xmlns="http://www.w3.org/2000/svg"
     xmlns:xlink="http://www.w3.org/1999/xlink">
    <!-- Generator: Sketch 52.5 (67469) - http://www.bohemiancoding.com/sketch -->
    <title>Solstice-K+C-logo-left</title>
    <desc>Created with Sketch.</desc>
    <defs>
        <polygon id="path-1"
                 points="0.0977232143 0.233014085 136.39229 0.233014085 136.39229 42.672184 0.0977232143 42.672184"></polygon>
        <polygon id="path-3"
                 points="0.0978688525 0.383943662 198.727598 0.383943662 198.727598 52.2789311 0.0978688525 52.2789311"></polygon>
        <polygon id="path-5"
                 points="0.0977232143 0.208621426 77.9375208 0.208621426 77.9375208 16.7699531 0.0977232143 16.7699531"></polygon>
    </defs>
    <g id="Desktop-AI" stroke="none" stroke-width="1" fill="none" fill-rule="evenodd">
        <g id="Solstice-K+C-logo-left">
            <g id="Group-4">
                <mask id="mask-2" fill="white">
                    <use xlink:href="#path-1"></use>
                </mask>
                <g id="Clip-2"></g>
                <polyline id="Fill-1" fill="#3A4659" mask="url(#mask-2)"
                          points="129.046762 0.233014085 127.020634 6.70077308 136.39229 6.70077308 136.372746 0.233014085 129.046762 0.233014085"></polyline>
                <path d="M10.5459635,18.3466228 C10.560622,17.0698998 11.7430729,16.2575869 13.5574673,16.2786228 C16.4386734,16.3126041 18.1227701,17.9663568 19.1390915,19.2058623 L19.386657,19.5100751 L25.8396466,15.024554 L25.6213981,14.6750329 C24.5268981,12.9177183 21.2059375,8.82055399 14.0232813,8.73641002 C6.58980208,8.64902973 1.54891295,12.5164163 1.48213542,18.3595681 C1.4006994,25.4341346 7.43673661,27.6364413 11.8424249,29.2432676 C14.5786749,30.2384319 16.9419479,31.1025258 16.9224033,32.707734 C16.9061161,34.2109984 15.5428772,35.092892 13.2773274,35.0670016 C9.48729539,35.0233114 7.42370685,33.2368701 6.04743824,31.685061 L5.77544196,31.37923 L0,36.1608732 L0.20521875,36.4828858 C1.11241592,37.910097 4.70374405,42.5752332 12.8098847,42.6707042 C20.5365335,42.762939 25.982974,38.5347042 26.0530089,32.3921941 C26.1360737,25.3143912 20.1179524,23.2803725 15.7236652,21.7932895 C12.819657,20.8094523 10.5264189,20.0343568 10.5459635,18.3466228"
                      id="Fill-3" fill="#3A4659" mask="url(#mask-2)"></path>
            </g>
            <path d="M86.8204842,18.4866181 C86.8204842,17.2086171 88.0021891,16.3825328 89.8305492,16.3825328 C92.7339326,16.3825328 94.449046,18.0168839 95.4879616,19.2462917 L95.7407151,19.5475695 L102.190855,14.9798092 L101.967644,14.6331778 C100.843383,12.8870623 97.4509047,8.82629108 90.2113208,8.82629108 C82.7189833,8.82629108 77.6868898,12.7574805 77.6868898,18.6064813 C77.6868898,25.6897492 83.7940065,27.8213707 88.2533014,29.3779727 C91.0221017,30.3433574 93.4134129,31.1791604 93.4134129,32.7843556 C93.4134129,34.2907446 92.0478872,35.1913384 89.7648989,35.1913384 C85.9489768,35.1913384 83.8465268,33.4274055 82.4399696,31.8918606 L82.1642385,31.588963 L76.4017857,36.4418033 L76.6118666,36.7608986 C77.5441005,38.1798199 81.215592,42.8075117 89.3841274,42.8075117 C97.1718911,42.8075117 102.609375,38.5118734 102.609375,32.3632145 C102.609375,25.2783268 96.5219534,23.3119223 92.0774298,21.8751835 C89.1395801,20.9259964 86.8204842,20.1760415 86.8204842,18.4866181"
                  id="Fill-5" fill="#3A4659"></path>
            <polyline id="Fill-6" fill="#3A4659"
                      points="111.961338 0.441314554 109.185873 9.06351039 104.403931 9.06351039 104.386161 15.7088786 109.185873 15.7088786 109.185873 42.3661972 118.463809 42.3661972 118.463809 15.7088786 122.164967 15.7088786 124.375 9.06351039 118.463809 9.06351039 118.463809 0.441314554 111.961338 0.441314554"></polyline>
            <polygon id="Fill-7" fill="#3A4659"
                     points="64.4084821 42.3661972 73.7366071 42.3661972 73.7366071 0.441314554 64.4084821 0.441314554"></polygon>
            <polygon id="Fill-8" fill="#3A4659"
                     points="127.040179 42.3661972 136.368304 42.3661972 136.368304 8.82629108 127.040179 8.82629108"></polygon>
            <path d="M44.956148,35.0265166 C40.2928798,34.9712779 36.9503842,31.2816525 37.0071742,26.2532992 C37.0672093,21.120967 40.4940786,17.4362156 45.1573467,17.4898297 C49.8563115,17.5450685 53.2231457,21.312678 53.1631106,26.4450102 C53.104698,31.5545971 49.729751,35.0833801 44.956148,35.0265166 M45.2514559,9.26900005 C35.5208994,9.15202381 28.0976385,16.4077996 27.9856811,26.146071 C27.8737237,35.9379564 34.9708479,43.1303701 44.8620389,43.2473463 C54.7873038,43.3659472 62.0726462,36.3441239 62.1862262,26.5522384 C62.2981836,16.8155917 55.0177089,9.38435161 45.2514559,9.26900005"
                  id="Fill-9" fill="#3A4659"></path>
            <path d="M176.960447,22.03995 C177.478865,18.6583551 179.879789,16.5017175 183.187945,16.5017175 C186.594924,16.5017175 189.03149,18.7085848 189.376562,22.03995 L176.960447,22.03995 Z M183.066441,8.82629108 C174.024904,8.82629108 167.462054,16.0107624 167.462054,25.907639 C167.462054,35.8563656 174.344055,42.8075117 184.19562,42.8075117 C191.785586,42.8075117 196.200241,38.3046597 197.614551,35.6441045 L197.786277,35.3200417 L191.748325,30.6648802 L191.498836,31.0359321 C190.922096,31.897939 188.696138,34.7108038 184.313884,34.7108038 C180.143858,34.7108038 177.073851,32.1102001 176.699617,28.3283878 L198.45536,28.3283878 L198.494241,27.9411328 C198.555804,27.317312 198.555804,26.6918709 198.555804,26.0891141 C198.555804,15.2800009 192.767341,8.82629108 183.066441,8.82629108 Z"
                  id="Fill-10" fill="#3A4659"></path>
            <g id="Group-14" transform="translate(0.000000, 8.384977)">
                <mask id="mask-4" fill="white">
                    <use xlink:href="#path-3"></use>
                </mask>
                <g id="Clip-12"></g>
                <path d="M156.559172,8.56532707 C159.141279,8.56532707 161.423254,9.51032864 163.53559,11.455349 L163.897705,11.7903067 L166.607041,3.99404382 L166.399885,3.83546479 C163.431197,1.54577778 160.040041,0.383943662 156.321025,0.383943662 C146.646689,0.383943662 139.350566,7.69314241 139.350566,17.3858811 C139.350566,27.1320188 146.512934,34.2049671 156.381377,34.2049671 C161.509705,34.2049671 165.059082,31.7890642 166.347689,30.7502097 L166.57768,30.5641221 L164.09018,22.9005477 L163.610623,23.3002316 C162.118123,24.5429734 159.736648,26.0252019 156.856041,26.0252019 C151.884303,26.0252019 148.41159,22.4474648 148.41159,17.3260094 C148.41159,12.1673365 151.761967,8.56532707 156.559172,8.56532707"
                      id="Fill-11" fill="#3A4659" mask="url(#mask-4)"></path>
                <polygon id="Fill-13" fill="#ACAFA9" mask="url(#mask-4)"
                         points="0.0978688525 51.8509296 198.727598 51.8509296 198.727598 51.0887793 0.0978688525 51.0887793"></polygon>
            </g>
            <polyline id="Fill-15" fill="#ACAFA9"
                      points="37.5501337 77.6713615 37.5501337 87.3063331 29.8616962 77.6713615 26.6517857 77.6713615 26.6517857 94 30.4151853 94 30.4151853 84.7738144 37.7770806 94 41.3102679 94 41.3102679 77.6713615 37.5501337 77.6713615"></polyline>
            <g id="Group-20" transform="translate(0.000000, 77.230047)">
                <mask id="mask-6" fill="white">
                    <use xlink:href="#path-5"></use>
                </mask>
                <g id="Clip-17"></g>
                <polygon id="Fill-16" fill="#ACAFA9" mask="url(#mask-6)"
                         points="17.7644516 16.5404695 21.8965149 16.5404695 21.8965149 0.450943235 17.7644516 0.450943235"></polygon>
                <polyline id="Fill-18" fill="#ACAFA9" mask="url(#mask-6)"
                          points="9.4074881 0.450943235 4.13206324 7.40445583 4.13206324 0.450943235 0 0.450943235 0 16.5404695 4.13206324 16.5404695 4.13206324 12.3215023 5.69563467 10.535382 9.78697991 16.5404695 14.7480618 16.5404695 8.48400372 7.34347418 14.5118973 0.450943235 9.4074881 0.450943235"></polyline>
                <path d="M70.8558452,3.71025181 C72.7011853,3.71025181 73.9943891,4.53992318 74.7582589,5.83498079 L77.9375208,3.84184379 C76.3544048,1.33196756 74.2191525,0.208621426 70.8297857,0.208621426 C66.6912076,0.208621426 62.3799851,3.19672215 62.3799851,8.48928724 C62.3799851,13.7818523 66.7433266,16.7699531 70.880276,16.7699531 C74.1686622,16.7699531 76.3544048,15.6482117 77.9375208,13.1383355 L74.8885565,11.2061801 C74.1246868,12.5028425 72.7353884,13.3581904 70.8558452,13.3581904 C68.2889821,13.3581904 66.4957612,11.3618438 66.4957612,8.48928724 C66.4957612,5.61673069 68.2889821,3.71025181 70.8558452,3.71025181"
                      id="Fill-19" fill="#ACAFA9" mask="url(#mask-6)"></path>
            </g>
            <path d="M110.810154,83.6592346 C110.810154,80.3518182 108.476736,77.6713615 104.914946,77.6713615 L97.7232143,77.6746184 L97.7232143,94 L101.839961,94 L101.839961,89.6487362 L103.951072,89.6487362 L106.862166,94 L111.493304,94 L108.03212,88.8247319 C109.774882,87.78577 110.810154,85.860922 110.810154,83.6592346 M104.032206,86.3445767 L101.839961,86.3445767 L101.839961,80.975521 L104.032206,80.975521 C105.614322,80.975521 106.756691,82.0714793 106.756691,83.6592346 C106.756691,85.2469899 105.614322,86.3445767 104.032206,86.3445767"
                  id="Fill-21" fill="#ACAFA9"></path>
            <path d="M85.5236466,77.6713615 L78.6227679,94 L82.8229465,94 L83.7046071,91.6938608 L89.9811128,91.6938608 L90.8578571,94 L95.0580357,94 L88.1587957,77.6713615 L85.5236466,77.6713615 Z M86.8412212,83.4643963 L88.868385,88.7835 L84.8124185,88.7835 L86.8412212,83.4643963 Z"
                  id="Fill-22" fill="#ACAFA9"></path>
            <path d="M132.606829,77.6713615 L125.707589,94 L129.907768,94 L130.786151,91.6938608 L137.062657,91.6938608 L137.942679,94 L142.142857,94 L135.241978,77.6713615 L132.606829,77.6713615 Z M133.926043,83.4643963 L135.953206,88.7835 L131.89724,88.7835 L133.926043,83.4643963 Z"
                  id="Fill-23" fill="#ACAFA9"></path>
            <polyline id="Fill-24" fill="#ACAFA9"
                      points="113.270089 77.6713615 113.270089 80.9709647 117.673223 80.9709647 117.673223 94 121.750258 94 121.750258 80.9709647 126.151786 80.9709647 126.151786 77.6713615 113.270089 77.6713615"></polyline>
            <polyline id="Fill-25" fill="#ACAFA9"
                      points="53.9399621 84.5414471 53.9399621 80.3192488 51.3345915 80.3192488 51.3345915 84.543041 47.0848214 84.543041 47.0848214 87.1331022 51.3345915 87.1331022 51.3345915 91.3521127 53.9399621 91.3521127 53.9399621 87.1315083 58.1897321 87.1315083 58.1897321 84.5414471 53.9399621 84.5414471"></polyline>
        </g>
    </g>
</svg>